<?xml version="1.0" encoding="UTF-8" standalone="no"?>
<!-- Created with Inkscape (http://www.inkscape.org/) -->

<svg
   width="495.8761"
   height="496.4003"
   viewBox="0 0 495.8761 496.4003"
   version="1.1"
   id="svg1"
   xml:space="preserve"
   inkscape:version="1.4 (e7c3feb100, 2024-10-09)"
   sodipodi:docname="logo.svg"
   xmlns:inkscape="http://www.inkscape.org/namespaces/inkscape"
   xmlns:sodipodi="http://sodipodi.sourceforge.net/DTD/sodipodi-0.dtd"
   xmlns="http://www.w3.org/2000/svg"
   xmlns:svg="http://www.w3.org/2000/svg"><sodipodi:namedview
     id="namedview1"
     pagecolor="#505050"
     bordercolor="#eeeeee"
     borderopacity="1"
     inkscape:showpageshadow="0"
     inkscape:pageopacity="0"
     inkscape:pagecheckerboard="0"
     inkscape:deskcolor="#505050"
     inkscape:document-units="px"
     inkscape:zoom="1.2042912"
     inkscape:cx="125.80013"
     inkscape:cy="241.6359"
     inkscape:window-width="2048"
     inkscape:window-height="1083"
     inkscape:window-x="0"
     inkscape:window-y="0"
     inkscape:window-maximized="1"
     inkscape:current-layer="layer1" /><defs
     id="defs1" /><g
     inkscape:label="Calque 1"
     inkscape:groupmode="layer"
     id="layer1"
     transform="translate(-8.5375433,-2.4715748)"><g
       id="g1"
       transform="translate(3.83896,-4.8498405)"><path
         style="display:inline;fill:#2b5279"
         d="m 412.76015,445.9927 c -0.6792,-1.90331 -0.57299,-6.64266 -0.58541,-10.88567 -0.048,-16.33555 11.11541,-23.59771 17.06071,-25.73922 32.94592,-11.8672 59.08025,46.10757 20.54785,52.66457 -4.15963,0.70784 -11.56271,1.8812 -15.80489,1.39513 -12.49128,-0.66608 -16.69684,-5.12745 -21.21826,-17.43481 z M 64.299944,383.7849 c -10.915481,-2.57281 -21.363905,-8.90109 -22.910349,-19.60197 -1.199618,-8.30096 -0.173556,-21.20093 5.5614,-27.33161 5.432351,-5.8072 16.527616,-8.08052 24.226288,-8.07745 7.27327,0.003 14.317195,2.28411 19.311573,7.39424 5.742347,5.87544 8.141006,12.6707 8.124218,21.39482 -0.01028,5.34086 1.10737,7.06579 -0.938876,11.74177 -1.826067,4.17284 -8.653084,10.81336 -12.815632,12.9429 -5.900886,3.01886 -14.339604,3.00315 -20.558622,1.5373 z m 53.267436,-2.25171 c 0,-0.53366 0.55131,-2.00792 1.22512,-3.27614 3.92435,-7.38618 5.88857,-18.44329 5.06548,-28.51494 -0.26201,-3.20604 -0.48307,-66.67708 -0.49791,-142.96064 l -0.0634,-137.524908 0.63986,0.0047 c 0.66784,0.0049 7.18095,-0.185675 13.81185,-0.104335 l 12.05618,0.147891 0.1431,155.419952 c 0.0787,85.48097 0.0152,155.95068 -0.14103,156.59935 l -0.28413,1.17941 h -15.97756 c -15.19959,0 -15.97757,-0.0472 -15.97757,-0.97029 z"
         id="path1"
         sodipodi:nodetypes="ssssssssssssssssssscsscsscsss"
         transform="translate(3.3e-6)" /><path
         style="display:inline;fill:#7ec8fe"
         d="m 426.83472,487.02824 c -31.45973,-9.01894 -41.29262,-28.66955 -41.59434,-59.7072 l -0.0781,-17.29801 -161.44803,-0.29347 C 47.143328,409.40859 60.896726,409.66947 52.568825,406.48319 38.911633,401.25791 26.393119,388.51792 21.537491,374.90284 18.237348,365.64932 18.48602,378.93188 18.510001,213.19272 18.530974,68.244822 18.569112,62.310269 19.508784,57.77277 20.653812,52.243641 21.194272,50.568017 23.31288,45.978676 28.104357,35.599353 37.031969,26.43203 47.404063,21.240633 c 4.717875,-2.361371 5.790959,-2.732458 11.952573,-4.133356 7.985797,-1.815643 20.558223,-1.216942 28.070287,1.336711 4.756343,1.616872 11.458743,5.071314 14.415007,7.429546 7.73595,6.171031 11.88679,10.79184 15.50307,17.25835 3.27849,5.862487 6.17002,14.393792 6.17002,18.852668 0,3.286503 0.35465,5.36861 1.31869,5.82492 0.47217,0.223496 73.39217,0.550775 162.04443,0.727286 l 161.18595,0.320929 c 13.33962,3.387788 24.19559,10.957605 32.90384,21.517325 2.52932,3.492658 5.60473,9.451627 6.84534,13.263678 2.56588,7.88417 2.42579,-2.00634 2.48819,175.67412 0.0418,118.90412 -0.10327,165.75411 -0.5155,166.52435 -0.72907,1.36232 -0.61025,8.48453 -8.50632,19.99058 -2.92448,4.26153 -9.3593,10.56513 -13.74616,13.46584 -5.72495,3.78549 -11.57007,6.24658 -17.89685,7.72301 -4.69679,1.09605 -18.55276,1.10313 -22.80191,0.0116 z m 38.44657,-51.84447 c -0.0494,-26.58051 -40.10092,-40.05636 -52.34459,-8.02221 -9.25766,46.09556 52.41478,45.21633 52.34459,8.02221 z m 23.93418,-321.27071 c -0.978,-6.83511 -3.07034,-13.3599 -6.44766,-19.447554 -7.43804,-12.437654 -20.58507,-20.432745 -26.83718,-22.327272 -0.867,-0.22326 -5.35983,-2.207976 -7.36588,-2.370911 l -2.46806,-0.20046 H 298.3747 c -97.91589,0 -147.64012,-0.570404 -148.04595,-0.524182 -0.77306,0.08805 -5.39378,-0.109 -13.68143,-0.109 -15.00075,0 -13.83812,-0.06782 -13.83812,-4.871263 0,-4.884335 -2.39794,-13.450439 -5.32356,-19.017184 -3.39636,-6.462474 -7.90144,-11.884308 -13.8153,-16.626653 -1.43808,-1.1532 -2.73263,-2.226501 -2.87678,-2.385112 C 99.557701,24.673628 89.281212,19.607845 86.64065,19.056808 85.9199,18.906401 84.386667,18.54216 83.233467,18.247383 78.298018,16.985802 73.485552,16.506439 68.780164,16.807712 60.616892,17.330383 57.975559,17.85231 51.782552,20.166434 40.480516,24.389637 29.278638,34.799273 24.287865,45.716585 c -0.658971,1.4415 -1.375915,2.982475 -1.593208,3.424388 -0.217293,0.441913 -0.573007,1.61358 -0.790475,2.603704 -0.217467,0.990125 -0.588256,2.161792 -0.823974,2.603705 -1.718212,3.221224 -1.769336,7.236483 -1.917766,150.621158 -0.0984,95.05127 0.02719,141.84734 0.380076,141.62924 0.289865,-0.17915 0.527028,-0.90895 0.527028,-1.62178 0,-3.73945 4.49098,-13.61896 8.829997,-19.42472 7.551138,-10.1037 16.75951,-16.22481 29.435283,-19.5666 5.562504,-1.46648 19.563498,-1.4889 24.898641,-0.0399 10.802054,2.93384 17.980483,7.07507 25.427523,14.6691 7.10379,7.24402 11.47863,15.11954 13.70507,24.67166 1.02549,4.39969 0.87089,15.69818 -0.28342,20.7125 -2.53091,10.99437 -6.0878,15.21456 -6.0878,16.49731 0,0.35781 53.69149,0.53129 164.42859,0.53129 176.37366,0 165.76405,-0.14768 173.93084,2.42118 12.02935,3.78382 23.37922,13.45695 29.75646,25.36047 2.20879,4.12286 4.32639,9.8855 4.92364,13.39876 0.24359,1.43291 0.49998,-66.92213 0.57423,-153.09325 0.0891,-103.38916 -0.043,-156.1925 -0.39313,-157.20176 z m -100.51816,295.82639 -2.70687,0.16307 0.0747,7.06593 c 0.0514,4.85836 0.0429,7.46959 0.39314,7.46959 1.08121,-3.59461 8.69001,-14.07442 2.23899,-14.69859 z M 85.474765,379.48944 c 13.065921,-6.51198 13.158469,-27.23783 10.837243,-32.0116 -10.217628,-27.43012 -49.894682,-19.85609 -53.633139,1.79723 -8.418915,24.97883 28.755243,43.05278 42.795893,30.21437 z"
         id="path4"
         sodipodi:nodetypes="sscsssssssssssssscsssssssssssssssscssssssssssssssssssssssssssssssssscssssssss" /><path
         style="display:inline;fill:#2780b8"
         d="m 489.34253,424.89946 c -0.47951,-5.05878 -4.60466,-14.31219 -9.07764,-20.36271 -4.16645,-5.63587 -11.7133,-12.77516 -15.16489,-14.34591 -0.43245,-0.19681 -1.61186,-0.85818 -2.62091,-1.46973 -2.58114,-1.56432 -7.9349,-3.53998 -12.74462,-4.70306 -3.97103,-0.96026 -9.10055,-0.99039 -168.6246,-0.99039 -100.97886,0 -164.64546,-0.18847 -164.83056,-0.48796 -0.16586,-0.26838 -0.0618,-0.63612 0.23116,-0.81721 0.293,-0.18108 0.53273,-0.0761 0.53273,0.23334 0,0.39162 4.97819,0.52049 16.38069,0.42408 l 16.38068,-0.13852 V 225.77308 69.304772 H 136.70002 123.59548 V 214.24108 c 0,79.71497 -0.14995,142.22366 -0.33321,138.90821 -0.57673,-10.4339 -2.71728,-16.83231 -8.59275,-25.68491 -4.81036,-7.24781 -15.568491,-15.98076 -23.573324,-19.13573 -7.887751,-3.10883 -10.338451,-3.55041 -19.918913,-3.58912 -9.020366,-0.0364 -13.300009,0.58641 -17.901404,2.60537 -0.908471,0.39861 -1.877728,0.72475 -2.153905,0.72475 -0.838591,0 -5.935874,2.74292 -9.823061,5.28593 -6.863213,4.48993 -14.456827,13.37741 -17.994676,21.06076 -1.050902,2.2823 -2.523456,6.62499 -3.597093,10.60813 -0.233129,0.8649 -0.483277,-61.62892 -0.555884,-138.87516 C 19.035433,82.92148 19.11577,65.234317 19.806487,61.890332 c 0.432982,-2.096201 0.787241,-4.307631 0.787241,-4.91429 0,-1.089509 1.2447,-5.556321 2.115043,-7.590183 1.282117,-2.996114 2.74949,-5.935559 3.663408,-7.338548 0.563402,-0.8649 1.190679,-1.926368 1.393947,-2.358818 0.203269,-0.43245 0.61866,-1.057459 0.923091,-1.388908 0.304432,-0.33145 1.732922,-1.998241 3.174422,-3.70398 1.4415,-1.70574 3.881704,-4.147196 5.422674,-5.425458 1.540971,-1.278261 3.233345,-2.690191 3.760832,-3.137622 0.527487,-0.44743 1.802423,-1.267687 2.833191,-1.822792 1.030768,-0.555106 1.874124,-1.191524 1.874124,-1.414264 0,-0.222739 0.334707,-0.40498 0.743793,-0.40498 0.409087,0 1.411585,-0.333352 2.227773,-0.740781 6.848199,-3.418517 12.68822,-4.666459 21.927075,-4.685553 8.080902,-0.0167 12.230698,0.690037 18.870549,3.213776 3.436814,1.306297 7.839722,3.500006 8.649002,4.309285 0.14415,0.14415 1.582019,1.150309 3.195268,2.235907 4.49845,3.027138 11.52325,10.464485 14.47613,15.326258 1.51764,2.498734 4.34424,8.777925 4.34424,9.650583 0,0.320716 0.21901,0.992713 0.48669,1.493326 0.73767,1.379611 1.74073,6.729708 2.08704,11.131754 l 0.30927,3.931365 13.62873,0.412271 c 7.4958,0.22675 80.50124,0.589266 162.23431,0.805593 158.21819,0.418763 149.13838,0.268286 156.4683,2.5931 1.6816,0.533347 7.70678,3.379411 9.4251,4.452053 4.43236,2.766854 14.42518,11.726483 14.42518,12.933716 0,0.346743 0.44252,0.951365 2.54706,3.480081 0.25837,0.310445 0.63246,1.077061 0.83131,1.703591 0.19885,0.626531 0.58154,1.139146 0.85041,1.139146 0.26887,0 0.48886,0.424588 0.48886,0.943528 0,0.51894 0.27548,1.219008 0.61218,1.555707 0.63095,0.630955 1.67775,3.197845 2.61481,6.411855 0.50017,1.71554 0.78224,3.03035 2.08041,9.69737 0.32611,1.67486 0.45337,58.43762 0.35253,157.25458 -0.0868,85.04852 -0.21636,154.01573 -0.28795,153.26046 z m -103.394,-8.06206 v -7.07646 h 2.95639 c 1.58565,0 3.53618,0.1073 3.53618,0.39702 0,0.28971 -1.53704,5.03352 -2.27388,6.54568 -1.67696,3.44146 -1.87289,4.23795 -2.59945,5.54816 -0.24953,0.44997 -0.85866,2.20699 -1.14696,2.20699 -0.32357,0 -0.47228,-3.25321 -0.47228,-7.62139 z M 117.06714,380.66885 c -0.011,-0.2883 0.68588,-1.93948 1.54861,-3.66928 0.86273,-1.7298 1.56949,-3.51071 1.57057,-3.95757 0.001,-0.44687 0.20461,-1.03657 0.45227,-1.31046 0.52233,-0.57762 1.62632,-5.50537 2.16669,-9.67115 l 0.37397,-2.883 0.0709,2.35882 c 0.0798,2.65715 -1.33115,8.78055 -3.01963,13.10454 -1.2818,3.28254 -3.13348,6.81111 -3.16336,6.0281 z"
         id="path2"
         sodipodi:nodetypes="sssssssssscccccsssssssssssssssssssssssssssssssscssssssssssssssscssssssssssscssss" /></g><text
       xml:space="preserve"
       style="font-size:192px;text-align:start;writing-mode:lr-tb;direction:ltr;text-anchor:start;fill:#000000"
       x="269.23477"
       y="229.11377"
       id="text8"><tspan
         sodipodi:role="line"
         id="tspan8"
         x="269.23477"
         y="229.11377" /></text><g
       id="g17"
       transform="matrix(0.51873771,0,0,0.51873771,-334.2842,92.635407)"
       style="display:inline"><path
         style="display:inline;opacity:1;fill:#ffffff;fill-opacity:1"
         d="m 1198.1155,336.56332 -0.2936,59.00918 61.6514,0.29357 1.7615,-57.83486 z"
         id="path32" /><path
         style="display:inline;opacity:1;fill:#ffffff;fill-opacity:1"
         d="m 1052.2072,337.44406 -0.2935,56.07339 62.2385,1.17431 -1.4679,-57.54128 z"
         id="path31" /><path
         style="display:inline;fill:#cb1a33"
         d="m 1012.7004,447.1864 c -1.2208,-1.33703 -1.75,-3.57454 -1.75,-7.39874 v -5.48209 l 50.75,-0.47567 c 27.9125,-0.26163 56.9166,-0.74378 64.4535,-1.07145 12.0825,-0.52529 14.0244,-0.38547 16.4168,1.18206 3.8448,2.51922 17.3456,2.57243 20.1023,0.0792 1.7991,-1.62721 6.3036,-1.75 64.1984,-1.75 60.7493,0 62.4722,-5.67617 64.9529,-3.72477 1.6606,1.30623 2.9303,2.36079 5.7334,2.88073 l 5.9799,-0.14679 0.4403,12.07799 -0.7339,6.20642 -144.5436,-0.37688 c -140.8274,-0.36719 -144.2915,-0.1288 -146,-2 z M 1274.92,282.55029 c -0.6012,-0.0603 -23.9881,-8.334 -42.6718,-20.52997 -8.3566,-5.45527 -16.2532,-8.25442 -15.6344,-9.25561 0.3828,-0.61941 17.0457,-0.75317 31.1752,-0.27349 l 24.5369,0.25949 c 1.5039,9.92346 6.1909,19.8542 2.5941,29.79958 z m -153.0981,-0.52883 c -13.0481,-5.32922 -33.8275,-20.02125 -45.0229,-28.48566 0.3836,-0.62065 15.3103,-0.85258 29.8572,-1.0734 l 24.1749,-0.36697 0.7872,5.7844 c 0.7218,5.30407 2.5919,26.24978 1.4943,26.61564 -0.5945,0.19816 -9.6213,-1.7922 -11.2907,-2.47401 z m -82.6544,-102.68325 44.9442,-0.76589 40.5154,-0.28253 0.8335,6.78667 c 1.1357,9.24729 3.0976,18.33022 2.9852,27.97585 l 0.4404,8.06147 -41.0321,0.44036 -52.922,-1.90825 c 0.6547,-13.53308 3.3095,-26.82744 4.2354,-40.30768 z m 140.8585,39.12576 c -1.5055,-1.64167 0.9784,-10.07434 1.3639,-18.59934 l 2.0505,-22.3505 42.3488,1.19151 38.9236,-0.054 c 0,0 1.0459,13.59725 3.7053,40.3168 l -39.8567,0.20759 c -14.3115,0.0745 -47.1234,0.8277 -48.5354,-0.71204 z m -134.2325,-80.98042 c 1.5391,-8.64012 0.7702,-8.89258 -1.3868,-11.52917 -2.9386,-3.59197 -3.5753,-14.41962 0.8854,-17.9857 l 4.7455,-3.79363 38.0252,0.28558 32.1537,2.04704 3.2155,4.28061 c 2.5839,3.43974 1.7858,13.53107 -0.4523,15.38847 -1.0728,0.8904 -1.9309,2.34887 -1.3096,9.75776 l 0.2498,14.11903 -38.7969,0.11632 -39.5841,-0.0305 z m 140,0 c 0.1209,-8.7753 0.7702,-8.89258 -1.3868,-11.52917 -2.9386,-3.59197 -3.5753,-14.41962 0.8854,-17.9857 l 4.7455,-3.79363 38.0252,0.28558 34.3334,1.94324 2.2813,3.13886 c 2.5294,3.48007 0.5403,14.77662 -1.6978,16.63402 -1.0728,0.8904 -2.1119,2.22124 -1.9324,9.65396 l 0.3537,14.63801 -38.278,-0.29886 -37.5082,0.28089 z"
         id="path17"
         sodipodi:nodetypes="sscssssssscccssssssscssscssssccsscccscscccsssssscccssscccssssscccssscccss" /><path
         style="display:inline;opacity:1;fill:#ffffff;fill-opacity:1"
         d="m 1034.8623,219.59952 1.5569,29.9969 42.2448,6.02014 52.4167,-1.34934 -2.4911,-35.60186 z"
         id="path28" /><path
         style="display:inline;opacity:1;fill:#ffffff;fill-opacity:1"
         d="m 1336.0972,71.755978 c 0,0 -12.9175,220.183492 -10.5689,220.183492 2.3487,0 118.6056,-2.34863 118.6056,-2.34863 l -4.6973,-216.66055 z"
         id="path30" /><path
         style="display:inline;opacity:1;fill:#ffffff;fill-opacity:1"
         d="m 1179.7608,215.6553 0.9341,37.67776 63.5229,3.01007 27.8172,-2.59489 -3.9443,-36.43222 z"
         id="path29" /><path
         style="display:inline;fill:#b0b0b0"
         d="m 1382.3691,450.27872 79.9188,-0.50898 1.7582,-3 c 1.0872,-1.85518 1.786,-5.18347 1.8312,-8.72178 l 0.073,-5.72178 -13.75,-0.27822 -13.75,-0.27822 -0.5,-61 c -0.275,-33.55 -0.8687,-61.74316 -1.3192,-62.65146 -0.4505,-0.9083 -1.8005,-1.91466 -3,-2.23635 -1.1995,-0.32168 -22.9678,-0.59103 -48.3741,-0.59854 l -46.1933,-0.0136 -1.5567,2.2225 c -1.3671,1.95172 -1.5567,9.54792 -1.5567,62.34502 0,56.97571 -0.096,60.20912 -1.8288,61.77749 -1.5237,1.37894 -4.2342,1.65499 -16.25,1.65499 h -14.4212 v -64.45 c 0,-51.53354 0.084,-66.24721 -1.2994,-65.75 -1.1449,0.4116 -14.543,1.71105 -69.5848,1.71499 -37.7854,0.003 -72.1968,-1.84837 -77.3234,-1.18415 -49.861,6.46018 -95.4795,2.76007 -145.2924,-1.83084 -0.7736,-0.059 -1,-12.32295 -1,-37.44099 0,-36.72568 0.07,-38.12908 2,-40.05901 1.1,-1.1 2.4985,-2.19252 3.0332,-2 42.6842,15.3689 92.6247,51.80587 129.8325,63.25095 1.1241,0.34576 1.3203,-15.53379 1.7192,-32.56364 0.5603,-23.91726 1.0182,-30.94299 2.0739,-31.81909 1.0069,-0.83566 2.515,-0.79948 5.8737,0.14089 38.162,10.68444 140.1739,74.44978 146.9256,73.78872 l 3.0419,-0.29783 0.2745,-104.5 c 0.151,-57.475 0.03,-105.512502 -0.269,-106.750002 -0.4116,-1.703699 -1.2618,-2.25 -3.5015,-2.25 -3.7782,0 -5.3136,-2.47308 -6.9441,-11.185104 -1.1406,-6.094042 -1.088,-6.908121 0.5944,-9.2075 1.0151,-1.387318 2.2957,-2.658853 2.8457,-2.825633 0.55,-0.166781 40.1442,-0.07341 87.9871,0.2075 l 86.9871,0.510737 1.445,3 c 1.6511,3.427819 2.611,12.251186 1.7194,15.803821 -0.4045,1.611673 -1.6716,2.703136 -3.87,3.333701 l -3.2686,0.937508 -0.2302,179.962482 c -0.1265,98.97937 -0.239,181.19999 -0.25,182.71249 -0.011,1.5125 -0.9198,3.65 -2.0198,4.75 -1.9709,1.97086 -3.1692,1.99649 -82.25,1.75898 l -80.25,-0.24101 z M 1159.3112,301.18756 c -2.8915,-15.66011 -14.2952,-1.16893 -12.1394,0.29949 1.2176,0.8294 11.3765,0.57878 12.1398,-0.29949 z m 273.604,-14.85208 c 1.6654,-3.11176 1.4185,-200.502744 -0.2525,-201.889541 -1.5129,-1.25561 -19.4268,-2.042697 -62.2049,-2.73312 -28.4997,-0.459976 -31.0936,-0.36189 -32.25,1.219485 -1.7915,2.45011 -1.8478,202.347066 -0.057,204.137436 0.8987,0.89875 12.8144,1.2 47.4648,1.2 44.7172,0 46.2994,-0.0647 47.3,-1.93426 z m 35.7852,-206.740794 c 3.1411,-1.306497 3.25,-1.547366 3.25,-7.189145 0,-3.210546 -0.4845,-7.227211 -1.0767,-8.925922 l -1.0767,-3.088566 -85.6733,-0.310657 c -73.6251,-0.26697 -85.8491,-0.107993 -86.9233,1.130472 -1.3538,1.560745 -1.7379,14.774121 -0.4847,16.670722 1.3624,2.061849 7.6581,2.703363 24.2347,2.469468 44.046,-0.621487 111.3664,-0.114868 112.3266,0.845312 1.473,1.47294 31.2705,0.125629 35.4234,-1.601684 z"
         id="path21"
         sodipodi:nodetypes="ccsscccsssscsssscsscsssssssssscssssssscssscsssscccscccsssssccssscssssss" /><path
         style="display:inline;fill:#858587"
         d="m 1303.389,441.76916 -0.061,-8.49942 h 14.6564 c 12.9289,0 14.8515,-0.21555 16.3114,-1.82874 1.5012,-1.65886 1.655,-7.39787 1.655,-61.7775 0,-52.63983 0.1898,-60.21972 1.5567,-62.17126 l 1.5567,-2.2225 46.1933,0.0136 c 25.4063,0.008 47.1746,0.27686 48.3741,0.59854 1.1995,0.32169 2.5495,1.32805 3,2.23635 0.4505,0.9083 1.0442,29.10146 1.3192,62.65146 l 0.5,61 13.75,0.27822 13.75,0.27822 -0.073,5.72178 c -0.045,3.53844 -0.744,6.86653 -1.8313,8.72178 l -1.7582,3 -79.4187,0.24942 -79.4187,0.24942 z M 1010.7238,264.22974 c 0.3061,-42.59106 -0.1821,-40.1743 7.672,-37.97528 3.0384,0.8507 4.5522,1.881 4.9517,3.37027 0.3166,1.17976 0.5817,17.46751 0.5892,36.19501 0.01,25.13429 0.2241,43.29062 1.1099,44.17641 0.9333,0.93333 -0.4629,-7.72633 -6.6462,-7.72603 l -7.95,3.8e-4 z m 136.4476,37.25731 c -1.0274,-0.69982 -1.0793,-5.87285 -0.2634,-26.29427 0.5586,-13.98267 1.0216,-31.66942 1.029,-39.30388 l 0.4533,-12.77994 3.2856,-0.49627 c 6.9605,-1.05136 6.949,0.64002 7.5027,41.55598 0.2724,20.13059 0.3319,36.78909 0.1322,37.01889 -0.7633,0.87827 -10.9222,1.12889 -12.1398,0.29949 z M 1433.277,81.19637 c -0.9602,-0.96018 -68.2806,-1.466799 -112.3266,-0.845312 -16.5766,0.233895 -22.8723,-0.407619 -24.2347,-2.469468 -1.2532,-1.896601 -0.8691,-15.109977 0.4847,-16.670722 1.0742,-1.238465 13.2982,-1.397442 86.9233,-1.130472 l 85.6733,0.310657 1.0767,3.088566 c 0.5922,1.698711 1.0767,5.715376 1.0767,8.925922 0,5.641779 -0.1089,5.882648 -3.25,7.189145 -4.1529,1.727313 -33.9504,3.074624 -35.4234,1.601684 z"
         id="path19"
         sodipodi:nodetypes="ccssssccssscccssccccsssssscscsccsssccssssscssss" /><path
         style="display:inline;opacity:0.807277;fill:#ffffff;fill-opacity:1"
         d="m 1196.1028,103.67541 c 0,0 -8.0961,-9.96436 -4.7746,-23.45778 3.3215,-13.49341 12.8706,-26.36405 12.8706,-26.36405 0,0 4.567,-8.30364 8.9265,-11.41751 4.3594,-3.11386 8.3036,-7.26568 18.6831,-9.34159 10.3796,-2.07591 35.9133,-2.69869 37.574,-2.2835 1.6607,0.41518 38.8195,2.2835 39.4423,1.03795 0.6228,-1.24554 33.8373,0.41518 32.3842,-6.02014 -1.4531,-6.43532 2.9063,-0.41518 2.9063,-0.41518 0,0 2.8024,6.9543 0,7.47328 -2.8025,0.51897 -0.2076,3.42525 -7.4733,11.4175 -7.2657,7.99225 -25.8451,17.54144 -27.1944,17.74903 -1.3494,0.20759 -40.9992,14.42757 -41.2068,18.68319 -0.2076,4.25561 -14.8428,25.01471 -7.2657,26.05267 7.5771,1.03795 -64.8722,-3.11387 -64.8722,-3.11387 z"
         id="path25-2" /><path
         style="display:inline;fill:#a8cfd5"
         d="m 1066.9504,381.57576 c -3.4294,-1.22564 -4,-3.5673 -4,-16.41536 0,-6.9999 0.2731,-13.43889 0.607,-14.30887 0.5183,-1.35072 2.9323,-1.58179 16.5247,-1.58179 h 15.9178 l 1.0669,2.75 c 1.1857,3.05584 0.8084,26.96298 -0.4576,29 -0.5642,0.90787 -4.5242,1.22839 -14.4678,1.17105 -7.5301,-0.0434 -14.366,-0.32019 -15.191,-0.61503 z m 149,0 c -3.4526,-1.23393 -4,-3.5502 -4,-16.92572 0,-10.70071 0.3011,-13.53858 1.5714,-14.80887 1.2716,-1.27159 4.1181,-1.57143 14.9182,-1.57143 7.3408,0 14.0586,0.27314 14.9286,0.60699 1.3477,0.51717 1.5818,2.88826 1.5818,16.02475 v 15.41776 l -2.5651,0.97525 c -2.6492,1.0072 -23.7748,1.23198 -26.4349,0.28127 z m 134.2,-107.50602 c -0.8631,-0.86305 -1.2,-7.59218 -1.2,-23.96482 0,-21.48345 0.1089,-22.82308 1.9342,-23.8 2.0801,-1.11319 64.6641,-1.5103 67.484,-0.42819 1.381,0.52995 1.5818,3.62576 1.5818,24.39301 0,20.76725 -0.2008,23.86306 -1.5818,24.39301 -0.87,0.33384 -16.305,0.60699 -34.3,0.60699 -24.1142,0 -33.0338,-0.31557 -33.9182,-1.2 z m 2.55,-60.48933 c -1.613,-0.4215 -1.75,-2.60256 -1.75,-27.84881 0,-26.05771 0.094,-27.4419 1.9342,-28.42668 2.6267,-1.40574 62.5049,-1.40574 65.1315,0 1.84,0.98471 1.9343,2.36838 1.9343,28.375 v 27.33982 l -3.125,0.625 c -3.5179,0.70357 -61.4088,0.6455 -64.125,-0.0643 z m -2.6347,-69.67171 c -0.8161,-0.9834 -1.0729,-8.60784 -0.8831,-26.21821 l 0.2678,-24.831567 2.5,-0.694912 c 3.1543,-0.876797 61.6565,-1.112969 65.8913,-0.266002 l 2.875,26.750001 -0.2663,26.12173 -34.6169,0.2628 c -28.5305,0.2166 -34.8193,0.019 -35.7678,-1.12384 z"
         id="path23"
         sodipodi:nodetypes="sssscsssssssssscssssssssssssssscssssscssccss" /><path
         style="display:inline;fill:#e7aa9f"
         d="m 1147.1504,431.06974 c -0.9075,-0.90747 -1.2,-16.28128 -1.2,-63.06574 0,-34.80898 -0.3942,-62.60235 -0.9012,-63.55 -0.8118,-1.51726 -0.043,-1.68862 7.75,-1.72824 l 8.6512,-0.044 -0.2646,63.82426 -0.2645,63.82426 -2.5506,0.96971 c -3.5313,1.34263 -9.7756,1.21447 -11.2203,-0.23028 z m 145.9699,-0.0953 c -0.8403,-1.0125 -1.225,-18.66412 -1.4124,-64.79816 l -0.2575,-63.40659 c 0,0 -0.3078,0.21082 10.7006,0.29968 1.469,0.0119 1.2994,14.08299 1.2994,65 v 63.70029 l -4.5876,0.29816 c -3.0095,0.19559 -4.9849,-0.18054 -5.7425,-1.09341 z"
         id="path22"
         sodipodi:nodetypes="sssscccssssscsscsss" /><path
         style="display:inline;fill:#d8615e"
         d="m 1010.1931,370.01974 -0.2427,-67.75 h 66.9648 c 65.1827,0 66.9924,0.0515 68,1.93426 0.6816,1.27354 1.0352,23.06672 1.0352,63.8 0,46.78446 0.2925,62.15827 1.2,63.06574 1.446,1.44597 7.6899,1.57253 11.2275,0.22757 l 2.5577,-0.97243 0.2574,-63.77757 0.2574,-63.77757 h 65 65 l 0.2575,63.40659 c 0.182,44.81016 0.9921,63.5763 1.3724,64.75 0.9191,2.83671 -1.466,1.9098 -1.5229,1.76162 -0.3339,-0.86998 -0.6139,-29.33248 -0.6223,-63.25 -0.01,-33.91752 -0.3746,-62.23412 -0.8137,-62.92579 -0.6303,-0.99284 -14.0478,-1.20336 -63.7347,-1 l -62.9363,0.25758 -0.5,63 c -0.275,34.65 -0.8641,63.5625 -1.309,64.25 -0.5407,0.83529 -3.574,1.25 -9.143,1.25 -6.944,0 -8.477,-0.29188 -9.191,-1.75 -0.4714,-0.9625 -1.082,-29.875 -1.357,-64.25 l -0.5,-62.5 -65.2429,-0.25724 -65.2428,-0.25724 -0.2644,66.25724 -0.2644,66.25724 z m 48.0417,19.5 c -0.359,-0.9625 -1.4698,-2.33802 -2.4686,-3.05671 -1.6519,-1.18877 -1.8158,-3.1396 -1.8158,-21.61514 0,-19.0313 0.1303,-20.47413 2.0726,-22.94329 l 2.0725,-2.63486 h 21.9275 c 20.594,0 22.049,0.12161 23.9274,2 1.8839,1.88388 2,3.33333 2,24.96481 0,21.68119 -0.1081,23.02268 -1.9343,24 -1.162,0.62192 -10.5563,1.03519 -23.5314,1.03519 -19.6533,0 -21.6558,-0.1575 -22.2499,-1.75 z m 44.8868,-1.90499 c 1.6565,-1.49906 1.8288,-3.55423 1.8288,-21.81291 v -20.15792 l -2.8047,-2.68709 -2.8048,-2.68709 h -19.6271 -19.6272 l -2.0681,2.90437 c -1.9129,2.68644 -2.0681,4.30274 -2.0681,21.54049 0,17.60165 0.1214,18.8004 2.188,21.59563 l 2.1881,2.95951 h 20.4832 c 17.6565,0 20.7356,-0.22839 22.3119,-1.65499 z m 102.4636,1.58241 -2.6348,-2.07258 v -22.37072 c 0,-21.98364 0.038,-22.39765 2.2225,-23.92742 1.8369,-1.2866 5.7841,-1.5559 22.75,-1.55207 l 20.5275,0.005 3.25,3.04606 3.25,3.04606 v 19.89261 c 0,18.07377 -0.1661,20.01209 -1.8159,21.19931 -0.9987,0.71869 -2.1096,2.09421 -2.4686,3.05671 -0.5931,1.59001 -2.5632,1.75 -21.5493,1.75 -19.6262,0 -21.0567,-0.12599 -23.5314,-2.07258 z m 45.0002,-2.67742 c 1.6552,-2.44066 1.865,-4.85012 1.865,-21.41944 0,-18.38234 -0.037,-18.70912 -2.4243,-21.25 l -2.4243,-2.58056 h -19.1909 c -17.9006,0 -19.3679,0.13934 -21.8257,2.07258 l -2.6348,2.07258 v 19.61297 c 0,26.28215 -2.067,24.24187 24.5593,24.24187 h 20.2107 z"
         id="path20"
         sodipodi:nodetypes="ccssssscccccssscsscsssssccccccsssscsssssssscccccssscssccssccccssssccssscsscsscs" /><path
         style="display:inline;fill:#df4435"
         d="m 1146.2065,435.35357 c -1.7841,-0.45579 -3.8851,-1.36093 -4.6689,-2.01142 -1.0255,-0.85115 -5.3025,-1.01523 -15.2561,-0.58532 -7.6071,0.32856 -36.6686,0.81144 -64.5811,1.07307 l -50.75,0.47567 v -64.52516 -64.52516 l 65.25,0.25725 65.25,0.25724 0.5,62.5 c 0.275,34.375 0.8856,63.2875 1.357,64.25 0.714,1.45812 2.247,1.75 9.191,1.75 5.569,0 8.6023,-0.41471 9.143,-1.25 0.4449,-0.6875 1.034,-29.6 1.309,-64.25 l 0.5,-63 62.9363,-0.25758 c 49.6869,-0.20336 63.1044,0.007 63.7347,1 0.4391,0.69167 0.8052,29.00827 0.8137,62.92579 0.01,33.91752 -0.2799,63.01682 0.6223,63.25 6.8445,1.76901 -56.6273,-0.41659 -64.686,-0.41821 -55.4777,0 -62.4548,0.17308 -64.0184,1.58813 -2.0465,1.85206 -11.8157,2.72984 -16.6465,1.4957 z m -42.1904,-45.11902 c 1.8262,-0.97732 1.9343,-2.31881 1.9343,-24 0,-21.63148 -0.1161,-23.08093 -2,-24.96481 -1.8784,-1.87839 -3.3334,-2 -23.9274,-2 h -21.9275 l -2.0725,2.63486 c -1.9423,2.46916 -2.0726,3.91199 -2.0726,22.94329 0,18.47554 0.1639,20.42637 1.8158,21.61514 0.9988,0.71869 2.1096,2.09421 2.4686,3.05671 0.5941,1.5925 2.5966,1.75 22.2499,1.75 12.9751,0 22.3694,-0.41327 23.5314,-1.03519 z m 146.6498,-0.71481 c 0.359,-0.9625 1.4699,-2.33802 2.4686,-3.05671 1.6498,-1.18722 1.8159,-3.12554 1.8159,-21.19931 v -19.89261 l -3.25,-3.04606 -3.25,-3.04606 -20.5275,-0.005 c -16.9659,-0.004 -20.9131,0.26547 -22.75,1.55207 -2.1841,1.52977 -2.2225,1.94378 -2.2225,23.92742 v 22.37072 l 2.6348,2.07258 c 2.4747,1.94659 3.9052,2.07258 23.5314,2.07258 18.9861,0 20.9562,-0.15999 21.5493,-1.75 z"
         id="path18"
         sodipodi:nodetypes="sssscccccssssscsscsssssssscsssssscsscccssscsscc" /><path
         style="display:inline;opacity:0.795646;fill:#ffffff;fill-opacity:1"
         d="m 1067.4591,96.095108 c 0,0 -8.0961,-9.964367 -4.7746,-23.457781 3.3215,-13.493414 12.8706,-26.364055 12.8706,-26.364055 0,0 4.567,-8.303639 8.9265,-11.417504 4.3594,-3.113865 8.3036,-7.265684 18.6831,-9.341594 10.3796,-2.07591 35.9133,-2.698683 37.574,-2.283501 1.6607,0.415182 38.8195,2.283501 39.4423,1.037955 0.6228,-1.245546 33.8373,0.415182 32.3842,-6.020138 -1.4531,-6.435321 2.9063,-0.415182 2.9063,-0.415182 0,0 2.8024,6.954298 0,7.473275 -2.8025,0.518977 -0.2076,3.425251 -7.4733,11.417504 -7.2657,7.992253 -25.8451,17.541438 -27.1944,17.749029 -1.3494,0.207591 -40.9992,14.427573 -41.2068,18.683188 -0.2076,4.255615 -14.8428,25.014714 -7.2657,26.052669 7.5771,1.037957 -64.8722,-3.113865 -64.8722,-3.113865 z"
         id="path25"
         transform="translate(-17.027518,7.0458716)" /><path
         style="opacity:1;fill:#ffffff;fill-opacity:1"
         d="m 1044.1001,146.63129 -5.1898,34.25252 85.9427,0.10379 -3.0101,-36.43222 z"
         id="path26" /><path
         style="opacity:1;fill:#ffffff;fill-opacity:1"
         d="m 1185.7852,147.20552 -2.6422,33.17432 81.9083,1.76146 -3.523,-35.52293 z"
         id="path27" /></g><g
       inkscape:groupmode="layer"
       id="layer2"
       inkscape:label="Layer 1" /></g></svg>
